<?xml version="1.0" encoding="UTF-8" standalone="no"?>
<!-- Created with Inkscape (http://www.inkscape.org/) -->

<svg
   xmlns:dc="http://purl.org/dc/elements/1.1/"
   xmlns:cc="http://creativecommons.org/ns#"
   xmlns:rdf="http://www.w3.org/1999/02/22-rdf-syntax-ns#"
   xmlns:svg="http://www.w3.org/2000/svg"
   xmlns="http://www.w3.org/2000/svg"
   xmlns:sodipodi="http://sodipodi.sourceforge.net/DTD/sodipodi-0.dtd"
   xmlns:inkscape="http://www.inkscape.org/namespaces/inkscape"
   version="1.0"
   width="300"
   height="98.696999"
   id="svg3039"
   sodipodi:docname="dolbyatmos.svg"
   inkscape:version="0.92.2 5c3e80d, 2017-08-06">
  <metadata
     id="metadata870">
    <rdf:RDF>
      <cc:Work
         rdf:about="">
        <dc:format>image/svg+xml</dc:format>
        <dc:type
           rdf:resource="http://purl.org/dc/dcmitype/StillImage" />
        <dc:title>Dolby Atmos Logo</dc:title>
      </cc:Work>
    </rdf:RDF>
  </metadata>
  <sodipodi:namedview
     pagecolor="#ffffff"
     bordercolor="#666666"
     borderopacity="1"
     objecttolerance="10"
     gridtolerance="10"
     guidetolerance="10"
     inkscape:pageopacity="0"
     inkscape:pageshadow="2"
     inkscape:window-width="1453"
     inkscape:window-height="937"
     id="namedview868"
     showgrid="false"
     inkscape:zoom="1.4166667"
     inkscape:cx="-50.470586"
     inkscape:cy="49.348501"
     inkscape:window-x="437"
     inkscape:window-y="179"
     inkscape:window-maximized="0"
     inkscape:current-layer="svg3039"
     fit-margin-top="11"
     fit-margin-bottom="11"
     fit-margin-left="0"
     fit-margin-right="0" />
  <title
     id="title3848">Dolby Atmos Logo</title>
  <defs
     id="defs3043" />
  <path
     d="M 0,11 V 87.599 H 108.95 V 11 Z m 181.45,0 c -5.51,0 -9.51,0.779 -12.58,2.797 -3.21,2.082 -4.69,5.604 -4.69,11.085 v 11.884 c 0,5.519 1.57,9.234 4.69,11.084 2.52,1.774 6.59,2.598 12.58,2.598 5.92,0 10.17,-0.792 12.59,-2.498 3.12,-1.959 4.69,-5.852 4.69,-11.184 V 24.882 c 0,-5.222 -1.55,-8.937 -4.69,-11.085 C 191.46,11.988 187.1,11 181.45,11 Z m -56.32,0.7 v 37.847 h 20.08 c 9.87,0 13.58,-4.093 13.58,-15.078 V 26.18 c 0,-10.42 -4.17,-14.48 -14.89,-14.48 z m 79.79,0 V 49.547 H 229 V 43.258 H 213.41 V 11.7 Z m 28.77,0 v 37.847 h 17.67 c 5.45,0 7.73,-1.064 8.79,-1.796 1.81,-1.22 4.1,-3.972 4.1,-8.289 -0.01,-5.089 -1.75,-10.175 -10.09,-9.986 6.63,-0.611 8.09,-3.867 8.09,-8.588 0,-4.185 -1.7,-6.296 -3.59,-7.49 -1.61,-1.013 -3.52,-1.698 -7.5,-1.698 z m 31.35,0 c 1.57,2.893 12.69,23.967 12.69,23.968 v 13.879 h 9.08 c 0,-1.879 0,-13.879 0,-13.879 0,-10e-4 11.45,-21.052 13.09,-23.968 h -7.99 l -9.4,17.077 -8.98,-17.077 z m -85.88,5.293 c 0.68,-0.052 1.48,0 2.29,0 6.52,0 8.79,1.34 8.79,7.889 v 11.385 c 0,6.713 -2.27,8.289 -8.79,8.289 -6.5,0 -8.78,-1.576 -8.78,-8.289 V 24.882 c 0,-5.731 1.69,-7.529 6.49,-7.889 z m 62.92,0.099 h 8.29 c 2.82,0 4.58,2.302 4.58,5.393 0,4.748 -2.19,4.856 -8.69,5.093 v 4.395 c 5.79,-0.023 10.4,-0.469 10.4,5.592 0,3.046 -1.89,6.492 -6.89,6.492 h -7.69 v -0.102 z m -108.46,0.1 h 10.28 c 2.93,0 6.5,1.723 6.5,7.89 v 10.286 c 0,6.633 -3.57,8.29 -6.5,8.29 H 133.62 Z M 12.882,20.987 h 12.382 c 12.892,0 23.668,12.87 23.668,28.164 0.003,15.732 -10.776,28.461 -23.668,28.461 H 12.882 Z m 70.806,0 H 96.17 V 77.612 H 83.688 C 70.79,77.612 60.017,64.883 60.017,49.151 60.017,33.857 70.79,20.987 83.688,20.987 Z M 296.4,42.359 c -1.95,0 -3.59,1.532 -3.59,3.596 0,2.08 1.64,3.592 3.59,3.592 1.93,0.004 3.6,-1.514 3.6,-3.592 0,-2.064 -1.67,-3.596 -3.6,-3.596 z m 0,0.599 c 1.63,0 2.89,1.281 2.89,2.997 0,1.751 -1.26,2.995 -2.89,2.995 -1.65,0 -2.89,-1.244 -2.89,-2.995 0,-1.716 1.24,-2.997 2.89,-2.997 z m -1.39,0.898 v 4.196 h 0.69 v -1.8 h 0.7 l 1.1,1.8 h 0.6 l -1.1,-1.8 c 0.61,-0.076 0.99,-0.469 0.99,-1.198 0,-0.821 -0.4,-1.198 -1.39,-1.198 z m 0.69,0.601 h 0.79 c 0.74,0 0.9,0.207 0.9,0.597 0.02,0.463 -0.21,0.7 -0.99,0.7 h -0.7 z m -75.3,13.581 c -3.68,0 -6.34,0.579 -8.39,2.097 -2.14,1.566 -3.19,4.17 -3.19,8.289 v 8.987 c 0,4.148 1.11,6.9 3.19,8.289 1.69,1.333 4.4,1.997 8.39,1.997 3.95,0 6.78,-0.616 8.39,-1.897 2.09,-1.474 3.19,-4.382 3.19,-8.389 v -8.987 c 0,-3.924 -1.09,-6.675 -3.19,-8.289 -1.73,-1.359 -4.62,-2.097 -8.39,-2.097 z m 39.45,0.598 v 1.399 h 1.8 v 4.992 h 1.39 v -4.992 h 1.8 v -1.399 z m 5.7,0 v 6.391 h 1.29 v -4.193 l 1.5,3.196 h 0.6 l 1.6,-3.595 0.09,4.592 h 1.2 v -6.391 h -1.59 l -1.61,3.297 -1.49,-3.297 z m -89.89,0.102 v 28.761 h 5.89 V 68.824 l 6.5,13.981 h 2.89 l 7.29,-15.88 0.2,20.574 h 5.6 V 58.738 h -7.3 l -7.29,15.078 -6.69,-15.078 z m -25.76,0.099 v 6.293 h 8.09 v 22.469 h 6.39 V 65.13 h 7.99 v -6.293 z m -15.88,0.099 -10.29,28.563 h 5.89 l 2.4,-6.391 h 10.79 l 2.4,6.391 H 151 L 140.91,58.936 Z m 109.46,0.099 c -5.12,0 -7.09,2.285 -7.09,6.194 v 4.192 c 0,3.87 1.61,5.158 5.88,5.794 l 6.09,0.899 c 1.49,0.236 1.9,0.709 1.9,1.996 v 2.698 c 0,1.109 -0.48,1.697 -1.6,1.697 h -12.18 v 2.994 c 1.07,1.246 3.38,1.604 5.09,1.598 h 7.5 c 4.81,0 6.48,-2.02 6.48,-6.091 v -4.295 c 0,-4.058 -1.23,-5.282 -4.99,-5.791 l -7.08,-0.997 c -1.18,-0.156 -1.91,-0.573 -1.91,-1.899 v -2.498 c 0,-1.377 0.31,-1.796 1.5,-1.796 h 11.49 v -3.097 c -0.93,-1.179 -3.39,-1.598 -5.09,-1.598 z m -24.58,3.496 c 0.46,-0.038 0.96,0 1.5,0 4.35,0 5.9,1.074 5.9,5.993 v 8.487 c 0,5.043 -1.55,6.193 -5.9,6.193 -4.34,0 -5.89,-1.15 -5.89,-6.193 v -8.487 c 0,-4.305 1.19,-5.721 4.39,-5.993 z m -81.49,4.296 3,7.988 -6.19,0.1 z"
     id="path265"
     style="fill:#{color};fill-opacity:1"
     inkscape:connector-curvature="0" />
</svg>
