<?xml version="1.0" encoding="UTF-8" standalone="no"?>
<!-- Generator: Adobe Illustrator 15.0.0, SVG Export Plug-In . SVG Version: 6.00 Build 0)  -->

<svg
   xmlns:dc="http://purl.org/dc/elements/1.1/"
   xmlns:cc="http://creativecommons.org/ns#"
   xmlns:rdf="http://www.w3.org/1999/02/22-rdf-syntax-ns#"
   xmlns:svg="http://www.w3.org/2000/svg"
   xmlns="http://www.w3.org/2000/svg"
   xmlns:sodipodi="http://sodipodi.sourceforge.net/DTD/sodipodi-0.dtd"
   xmlns:inkscape="http://www.inkscape.org/namespaces/inkscape"
   version="1.1"
   id="svg2"
   x="0px"
   y="0px"
   width="356.60599"
   height="111.816"
   viewBox="0 0 356.60599 111.816"
   enable-background="new 0 0 364.5 85.816"
   xml:space="preserve"
   sodipodi:docname="dolbydigitalplus.svg"
   inkscape:version="0.92.2 5c3e80d, 2017-08-06"><metadata
     id="metadata96"><rdf:RDF><cc:Work
         rdf:about=""><dc:format>image/svg+xml</dc:format><dc:type
           rdf:resource="http://purl.org/dc/dcmitype/StillImage" /><dc:title></dc:title></cc:Work></rdf:RDF></metadata><defs
     id="defs94" /><sodipodi:namedview
     pagecolor="#ffffff"
     bordercolor="#666666"
     borderopacity="1"
     objecttolerance="10"
     gridtolerance="10"
     guidetolerance="10"
     inkscape:pageopacity="0"
     inkscape:pageshadow="2"
     inkscape:window-width="1428"
     inkscape:window-height="951"
     id="namedview92"
     showgrid="false"
     inkscape:zoom="2.0768176"
     inkscape:cx="62.443531"
     inkscape:cy="55.907999"
     inkscape:window-x="487"
     inkscape:window-y="232"
     inkscape:window-maximized="0"
     inkscape:current-layer="svg2"
     fit-margin-top="13"
     fit-margin-bottom="13"
     fit-margin-left="0"
     fit-margin-right="0" /><path
     id="path239"
     d="m 143.543,76.907 c 0,-1.565 -0.516,-2.14 -2.037,-2.14 h -6.941 v 15.747 h 6.91 c 1.393,0 2.068,-0.44 2.068,-2.101 z m -1.424,17.43 H 129.322 V 70.906 h 13.037 c 4.703,0 6.395,2.1 6.395,5.923 v 10.995 c -0.001,5.128 -2.092,6.513 -6.635,6.513"
     style="fill:#929292;fill-opacity:1"
     inkscape:connector-curvature="0" /><rect
     id="rect241"
     x="154.19499"
     y="70.914001"
     width="5.211"
     height="23.423"
     style="fill:#929292;fill-opacity:1" /><path
     id="path243"
     d="m 180.738,94.337 -0.539,-1.589 c -0.783,1.015 -2.281,1.998 -5.863,1.998 h -2.572 c -4.469,0 -6.91,-1.385 -6.91,-6.395 V 76.593 c 0,-6.088 4.574,-6.166 7.756,-6.166 h 6.131 c 2.336,0 4.365,0.448 5.379,1.022 v 3.02 h -11.813 c -1.389,0 -2.234,0.331 -2.234,2.234 v 12.223 c 0,1.518 0.943,1.888 2.197,1.888 h 3.619 c 0.99,0 2.852,-0.401 3.697,-0.842 v -5.451 h -4.904 v -3.444 h 9.984 v 13.261 h -3.928 z"
     style="fill:#929292;fill-opacity:1"
     inkscape:connector-curvature="0" /><rect
     id="rect245"
     x="190.269"
     y="70.914001"
     width="5.2189999"
     height="23.423"
     style="fill:#929292;fill-opacity:1" /><polygon
     id="polygon247"
     points="205.83,81.337 205.83,61.736 198.791,61.736 198.791,57.914 218.014,57.914 218.014,61.736 211.041,61.736 211.041,81.337 "
     style="fill:#929292;fill-opacity:1"
     transform="translate(-0.393,13)" /><path
     id="path249"
     d="m 228.589,75.24 -0.314,-1.385 h -0.1 l -0.338,1.385 -2.914,9.147 h 6.639 z m 6.225,19.097 -1.967,-6.025 h -9.139 l -1.967,6.025 H 217.1 l 8.369,-23.627 h 6.193 l 8.475,23.627 z"
     style="fill:#929292;fill-opacity:1"
     inkscape:connector-curvature="0" /><polygon
     id="polygon251"
     points="249.113,57.906 249.113,77.341 259.873,77.341 259.873,81.337 243.895,81.337 243.895,57.906 "
     style="fill:#929292;fill-opacity:1"
     transform="translate(-0.393,13)" /><path
     id="path253"
     d="m 285.373,76.797 c 0,-1.455 -0.811,-2.061 -2.227,-2.061 h -6.41 V 82.9 h 6.473 c 1.416,0 2.164,-0.613 2.164,-2.068 z m -0.842,9.958 h -7.795 v 7.582 h -5.215 V 70.898 h 12.529 c 4.508,0 6.506,1.699 6.506,5.978 v 4.09 c 0,4.058 -1.636,5.789 -6.025,5.789"
     style="fill:#929292;fill-opacity:1"
     inkscape:connector-curvature="0" /><polygon
     id="polygon255"
     points="300.41,57.906 300.41,77.341 311.178,77.341 311.178,81.337 295.195,81.337 295.195,57.906 "
     style="fill:#929292;fill-opacity:1"
     transform="translate(-0.393,13)" /><path
     id="path257"
     d="m 327.238,94.816 h -6.205 c -4.459,0 -6.598,-1.36 -6.598,-6.402 V 70.898 h 5.213 v 17.854 c 0,1.495 0.709,1.998 1.959,1.998 h 5.6 c 1.244,0 1.951,-0.503 1.951,-1.998 V 70.898 h 4.641 v 17.516 c -10e-4,5.042 -2.092,6.402 -6.561,6.402"
     style="fill:#929292;fill-opacity:1"
     inkscape:connector-curvature="0" /><path
     id="path259"
     d="m 350.685,94.746 h -6.803 c -1.566,0 -3.697,-0.308 -4.672,-1.385 v -2.58 h 11.105 c 1.021,0 1.455,-0.534 1.455,-1.494 V 86.99 c 0,-1.116 -0.346,-1.557 -1.699,-1.762 l -5.576,-0.771 c -3.902,-0.551 -5.365,-1.667 -5.365,-5.018 v -3.634 c 0,-3.383 1.811,-5.38 6.482,-5.38 h 5.441 c 1.559,0 3.791,0.377 4.641,1.399 v 2.675 h -10.43 c -1.084,0 -1.447,0.393 -1.447,1.588 v 2.14 c 0,1.148 0.678,1.519 1.746,1.652 l 6.475,0.849 c 3.42,0.44 4.568,1.495 4.568,5.011 v 3.752 c 0.001,3.525 -1.517,5.255 -5.921,5.255"
     style="fill:#929292;fill-opacity:1"
     inkscape:connector-curvature="0" /><path
     id="path263"
     d="m 303.304,18.474 -9.736,17.638 -9.424,-17.638 h -8.816 c 1.637,2.981 13.174,24.701 13.174,24.701 v 14.311 h 9.486 c 0,-1.938 0,-14.264 0,-14.264 0,0 11.986,-21.743 13.686,-24.748 z"
     style="fill:#929292;fill-opacity:1"
     inkscape:connector-curvature="0" /><path
     id="path265"
     d="M 104.197,87.69 H 90.686 c -13.974,0 -25.649,-14.267 -25.649,-31.898 0,-17.138 11.675,-31.647 25.649,-31.647 h 13.511 z m -76.801,0 H 13.929 V 24.146 h 13.466 c 13.967,0 25.65,14.509 25.65,31.647 C 53.046,73.424 41.363,87.69 27.396,87.69 M 0,98.816 H 118.107 V 13 H 0 Z"
     style="fill:#929292;fill-opacity:1"
     inkscape:connector-curvature="0" /><path
     id="path267"
     d="m 201.293,20.645 c -2.691,-1.864 -7.221,-2.843 -13.104,-2.843 -5.75,0 -9.926,0.787 -13.119,2.867 -3.352,2.146 -4.92,5.772 -4.92,11.42 V 44.37 c 0,5.687 1.631,9.506 4.889,11.413 2.627,1.828 6.904,2.697 13.15,2.697 6.166,0 10.57,-0.893 13.088,-2.65 3.256,-2.021 4.955,-5.966 4.955,-11.46 V 32.089 c 0,-5.38 -1.66,-9.23 -4.939,-11.444 m -3.903,23.187 c 0,6.917 -2.406,8.51 -9.201,8.51 -6.781,0 -9.203,-1.593 -9.203,-8.51 V 32.144 c 0,-6.748 2.422,-8.207 9.203,-8.207 6.795,0 9.201,1.459 9.201,8.207 z"
     style="fill:#929292;fill-opacity:1"
     inkscape:connector-curvature="0" /><path
     id="path269"
     d="m 149.019,18.474 h -19.545 v 39.023 h 20.918 c 10.299,0 14.143,-4.203 14.143,-15.521 v -8.577 c 0,-10.737 -4.35,-14.925 -15.516,-14.925 m 6.777,24.437 c 0,6.835 -3.65,8.562 -6.701,8.562 H 138.282 V 24.2 h 10.813 c 3.051,0 6.701,1.723 6.701,8.077 z"
     style="fill:#929292;fill-opacity:1"
     inkscape:connector-curvature="0" /><polygon
     id="polygon271"
     points="213.09,44.493 238.164,44.493 238.164,37.997 221.898,37.997 221.898,5.474 213.09,5.474 "
     style="fill:#929292;fill-opacity:1"
     transform="translate(-0.393,13)" /><path
     id="path273"
     d="m 307.244,54.096 h 0.732 l 1.133,1.86 h 0.715 l -1.211,-1.88 c 0.637,-0.079 1.109,-0.417 1.109,-1.168 0,-0.846 -0.488,-1.223 -1.51,-1.223 h -1.629 v 4.271 h 0.66 v -1.86 z m 0,-1.872 h 0.873 c 0.756,0 0.945,0.229 0.945,0.63 0,0.476 -0.244,0.707 -1.055,0.707 h -0.764 v -1.337 z m -2.965,1.589 c 0,2.144 1.715,3.697 3.744,3.697 2.014,0 3.729,-1.554 3.729,-3.697 0,-2.127 -1.715,-3.681 -3.729,-3.681 -2.029,0 -3.744,1.554 -3.744,3.681 m 6.766,0 c 0,1.806 -1.322,3.099 -3.021,3.099 -1.715,0 -3.035,-1.293 -3.035,-3.099 0,-1.766 1.32,-3.103 3.035,-3.103 1.698,0 3.021,1.337 3.021,3.103"
     style="fill:#929292;fill-opacity:1"
     inkscape:connector-curvature="0" /><path
     id="path275"
     d="m 259.353,51.818 h -7.951 V 51.779 24.09 24.067 h 8.658 c 2.943,0 4.775,2.336 4.775,5.521 0,4.892 -2.375,5.01 -9.131,5.254 v 4.526 c 6.023,-0.023 10.869,-0.39 10.869,5.855 0.001,3.139 -2.005,6.595 -7.22,6.595 m 4.672,-14.97 c 6.922,-0.63 8.416,-4.027 8.416,-8.892 0,-4.311 -1.816,-6.501 -3.807,-7.731 -1.668,-1.043 -3.65,-1.75 -7.795,-1.75 H 242.601 V 57.49 h 18.482 c 5.678,0 8.039,-1.112 9.146,-1.867 1.881,-1.259 4.311,-4.035 4.311,-8.483 10e-4,-5.244 -1.816,-10.486 -10.515,-10.292"
     style="fill:#929292;fill-opacity:1"
     inkscape:connector-curvature="0" /></svg>