<?xml version="1.0" encoding="UTF-8" standalone="no"?>
<!-- Generator: Adobe Illustrator 12.0.1, SVG Export Plug-In  -->

<svg
   xmlns:dc="http://purl.org/dc/elements/1.1/"
   xmlns:cc="http://creativecommons.org/ns#"
   xmlns:rdf="http://www.w3.org/1999/02/22-rdf-syntax-ns#"
   xmlns:svg="http://www.w3.org/2000/svg"
   xmlns="http://www.w3.org/2000/svg"
   xmlns:sodipodi="http://sodipodi.sourceforge.net/DTD/sodipodi-0.dtd"
   xmlns:inkscape="http://www.inkscape.org/namespaces/inkscape"
   version="1.0"
   width="310.35806"
   height="114.65929"
   viewBox="-9.581543 -9.932617 310.35806 114.65929"
   enable-background="new -9.581543 -9.932617 330 114"
   xml:space="preserve"
   id="svg1632"
   sodipodi:docname="dtshdma.svg"
   inkscape:version="0.92.2 5c3e80d, 2017-08-06"><metadata
     id="metadata1636"><rdf:RDF><cc:Work
         rdf:about=""><dc:format>image/svg+xml</dc:format><dc:type
           rdf:resource="http://purl.org/dc/dcmitype/StillImage" /><dc:title></dc:title></cc:Work></rdf:RDF></metadata><sodipodi:namedview
     pagecolor="#ffffff"
     bordercolor="#666666"
     borderopacity="1"
     objecttolerance="10"
     gridtolerance="10"
     guidetolerance="10"
     inkscape:pageopacity="0"
     inkscape:pageshadow="2"
     inkscape:window-width="1599"
     inkscape:window-height="955"
     id="namedview1634"
     showgrid="false"
     inkscape:zoom="1.2878788"
     inkscape:cx="-18.122557"
     inkscape:cy="56.591798"
     inkscape:window-x="324"
     inkscape:window-y="197"
     inkscape:window-maximized="0"
     inkscape:current-layer="svg1632"
     fit-margin-top="11"
     fit-margin-bottom="11"
     fit-margin-left="0"
     fit-margin-right="0" /><defs
     id="defs1582" /><path
     d="m 98.23258,37.456165 c 0.23438,5.592773 2.80957,8.393555 2.80957,8.393555 1.64063,2.179688 4.68457,2.484375 4.68457,2.484375 1.87207,0.316406 4.44727,-0.304688 4.44727,-0.304688 V 25.951282 c 0,0 -2.57519,-0.310547 -4.44727,0 0,0 -3.04394,0.313477 -4.91894,2.800781 0,0 -2.34082,3.108398 -2.5752,8.083008 v 0.621094 m 32.54883,15.541992 c -10.06933,0 -18.03222,0.316406 -18.03222,0.316406 -9.83203,0.304688 -14.51661,0 -14.51661,0 -10.303707,0 -18.966793,-6.84375 -19.201168,-16.168945 -0.234375,-9.017578 7.025391,-16.166016 17.797848,-16.790039 0,0 4.91602,-0.621094 13.34473,0.624023 V 20.045032 2.3233516 l 20.60742,-0.310547 V 21.290149 h 10.06934 V 15.070423 L 160.98942,6.0557746 V 21.29015 h 7.25391 v 5.285156 c -3.97852,0 -7.25391,0 -7.25391,0 v 9.635742 c 0,0.624023 0,5.285156 0.23438,6.533203 0,0 0.23437,2.484375 2.33789,4.347656 0,0 1.40625,1.242188 4.21289,1.558594 0,0 0.9375,0 2.57812,0 h 4.92188 c 3.73828,0 4.67578,-0.621094 4.67578,-0.621094 1.64062,-0.621094 2.57812,-2.179688 2.57812,-3.732422 0,-1.248047 -0.70312,-2.490234 -1.40625,-3.111328 V 40.87511 l -5.38476,-4.974609 c -1.63477,-1.552734 -2.33789,-2.797852 -2.80664,-3.108398 v -0.310547 c -0.70313,-0.931641 -0.9375,-2.176758 -0.9375,-3.418945 0,-2.797852 1.40625,-4.974609 3.50976,-6.219727 h 0.23438 c 1.875,-1.242188 11.71289,-4.974609 29.9707,-0.621094 l -0.23437,4.353516 h -0.46875 c 0,0 -4.67578,-0.310547 -6.78516,0 v 0 c -1.40625,0.310547 -2.57812,1.242188 -2.57812,2.797852 0,0.931641 0.23437,1.552734 0.70312,2.176758 h 0.23438 l 7.2539,7.148438 c 1.40625,1.555664 2.34375,3.424805 2.34375,5.90918 0,3.421875 -2.57227,6.837891 -5.84765,7.769531 0,0 -2.10938,0.9375 -5.39063,1.242188 0,0 -1.64062,0 -6.08789,0 h -0.23438 c -16.38867,0.316406 -33.48632,0 -33.48632,0 h -0.46875 c -10.76661,-0.304688 -13.11036,-8.701172 -13.11036,-8.701172 -0.46582,-1.552734 -0.70019,-5.285156 -0.70019,-5.285156 V 26.575306 h -10.06934 z"
     id="path1584"
     style="fill:#929292;fill-opacity:1"
     inkscape:connector-curvature="0" /><path
     d="m 286.26286,36.835071 c 0,-2.487305 -0.23438,-4.042969 -0.23438,-4.042969 -0.23437,-3.108398 -0.9375,-4.664063 -0.9375,-4.664063 -0.46875,-1.242188 -1.17187,-1.552734 -1.17187,-1.552734 -0.70313,-0.624023 -1.64063,-0.93457 -1.64063,-0.93457 -0.70312,0 -1.875,0 -1.875,0 h -1.17187 v 22.388672 h 1.17187 c 0,0 1.17188,0 1.875,-0.316406 0,0 0.9375,0 1.64063,-0.621094 0,0 0.70312,-0.310547 1.17187,-1.552734 0,0 0.70313,-1.552734 0.9375,-4.664063 0,0 0.23438,-1.552734 0.23438,-4.040039 v 0 m 14.51367,0 c 0,3.108398 -0.69727,5.592773 -0.69727,5.592773 -0.70312,3.421875 -3.04687,5.90625 -3.04687,5.90625 -2.10938,2.800781 -6.08789,4.042969 -6.08789,4.042969 -2.34375,0.621094 -5.15039,0.9375 -5.15039,0.9375 -2.10938,0 -4.92188,0 -4.92188,0 H 265.18668 V 20.355579 h 15.68555 c 0,0 2.8125,0 4.92188,0 0,0 2.80664,0.310547 5.15039,0.93457 0,0 3.97851,1.242188 6.08789,4.040039 0,0 2.34375,2.487305 3.04687,5.90625 0,0 0.69727,2.490234 0.69727,5.285156 z"
     id="path1586"
     style="fill:#929292;fill-opacity:1"
     inkscape:connector-curvature="0" /><polyline
     points="254.86377,52.24707 268.914551,52.24707 268.914551,19.288086 254.86377,19.288086   254.86377,32.65918 248.775879,32.65918 248.775879,19.288086 234.730957,19.288086 234.730957,32.65918 218.102051,32.65918   218.102051,37.944336 234.730957,37.944336 234.730957,52.24707 248.775879,52.24707 248.775879,37.944336 254.86377,37.944336   254.86377,52.24707 "
     id="polyline1588"
     style="fill:#929292;fill-opacity:1"
     transform="translate(-9.5813803,1.0674926)" /><path
     d="m -7.3709313,18.802845 c 4.916016,-5.285156 20.1357423,-8.707031 37.6992193,-7.461914 20.135742,0.931641 36.292969,7.461914 37.699219,14.923828 v -0.313477 c 0.234375,-2.797852 0,-4.661133 0,-4.661133 C 67.558757,13.517688 50.229655,7.6085076 29.156413,7.9219846 11.595866,8.2325316 -3.1551103,12.583118 -7.8396813,18.492298 c 0,0 0.234375,0.310547 0.46875,0.310547 v 0"
     id="path1590"
     style="fill:#929292;fill-opacity:1"
     inkscape:connector-curvature="0" /><path
     d="m -2.6892903,22.532337 c 7.025391,-3.418945 19.2011723,-5.285156 33.0175783,-4.350586 20.135742,0.931641 36.292969,7.458984 37.699219,14.610352 v 0 c 0.234375,-2.797852 0,-4.664063 0,-4.664063 C 67.793132,20.355579 50.46403,14.449329 29.156413,14.759876 15.108561,15.070423 2.9327797,17.868274 -3.8582353,21.911243 c 0,0 0.46875,0.310547 1.168945,0.621094 v 0"
     id="path1592"
     style="fill:#929292;fill-opacity:1"
     inkscape:connector-curvature="0" /><path
     d="M 6.2081707,26.575306 C 12.999187,25.019642 21.430827,24.398548 30.328288,25.019642 50.46403,25.951283 66.621257,32.481556 68.027507,39.632923 v 0 c 0.234375,-2.797852 0,-4.664063 0,-4.664063 -0.46875,-7.772461 -17.797852,-13.678711 -38.871094,-13.368164 -9.834961,0 -18.732422,1.552734 -25.5234383,3.729492 0,0 1.40625,0.621094 2.575195,0.93457 v 0.310548"
     id="path1594"
     style="fill:#929292;fill-opacity:1"
     inkscape:connector-curvature="0" /><path
     d="M -9.2459313,14.449329 C -7.6053063,7.2979616 8.7862957,1.3917116 29.156413,1.0811646 48.59196,0.77061757 64.280436,5.7452266 67.324382,12.272571 c 0,0 0.46875,0.93457 0.46875,1.555664 0,0 0.234375,1.242188 0.234375,5.285156 v 0.310547 C 66.621257,11.962024 50.46403,5.4346806 30.328288,4.5001096 9.9552407,3.2579226 -6.9021813,7.9219846 -9.2459313,14.449329 v 0"
     id="path1596"
     style="fill:#929292;fill-opacity:1"
     inkscape:connector-curvature="0" /><path
     d="M 66.386882,36.521595 C 61.705241,42.427845 46.954265,47.091908 29.625163,47.091908 8.3175457,47.408313 -9.0115563,41.496204 -9.4773763,34.03722 c 0,0 -0.234375,-1.866211 0,-4.974609 v 0 c 1.637695,7.148438 17.794922,13.681641 37.6992193,14.923828 17.560547,0.931641 32.780273,-2.179688 37.930664,-7.775391 l 0.234375,0.310547 v 0"
     id="path1598"
     style="fill:#929292;fill-opacity:1"
     inkscape:connector-curvature="0" /><path
     d="M 62.408366,33.102649 C 55.61735,37.456165 43.441569,40.254016 29.390788,40.254016 8.3175457,40.564563 -9.0115563,34.658313 -9.4773763,27.196399 c 0,0 -0.234375,-1.866211 0,-4.974609 v 0 c 1.637695,7.151367 17.794922,13.678711 37.6992193,14.923828 13.813477,0.621094 25.989258,-1.245117 33.014648,-4.664063 0,10e-7 0.703125,0.310547 1.171875,0.621094 v 0"
     id="path1600"
     style="fill:#929292;fill-opacity:1"
     inkscape:connector-curvature="0" /><path
     d="M 55.1486,29.683704 C 48.357584,31.860462 39.225748,33.413196 29.625162,33.413196 8.3175457,33.726673 -9.0115563,27.817493 -9.4773763,20.355579 c 0,0 0,-1.863281 0,-4.974609 v 0 c 1.637695,7.151367 17.794922,13.681641 37.6992193,14.923828 9.131836,0.621094 17.326172,0 24.117188,-1.552734 0,0 1.168945,0.310547 2.575195,0.931641 H 55.1486"
     id="path1602"
     style="fill:#929292;fill-opacity:1"
     inkscape:connector-curvature="0" /><path
     d="M 67.793132,40.564563 C 66.152507,48.029407 49.763835,53.619251 29.390788,53.935657 10.189616,54.240345 -5.7332353,49.582141 -8.7771813,42.744251 c 0,0 -0.234375,-0.621094 -0.46875,-1.558594 0,0 -0.231445,-0.931641 -0.231445,-4.974609 v -0.310547 c 1.637695,7.148438 17.794922,13.681641 37.6992193,14.923828 20.370117,1.242187 37.464843,-3.732422 39.571289,-10.259766 v 0"
     id="path1604"
     style="fill:#929292;fill-opacity:1"
     inkscape:connector-curvature="0" /><polyline
     points="108.282715,92.348633 108.282715,69.344727 101.960449,92.348633 98.447754,92.348633 91.891113,69.344727   91.891113,92.348633 89.315918,92.348633 89.315918,66.860352 94.234863,66.860352 100.322754,89.243164 106.410645,66.860352   111.32666,66.860352 111.32666,92.348633 108.282715,92.348633 "
     id="polyline1606"
     style="fill:#929292;fill-opacity:1"
     transform="translate(-9.5813803,1.0674926)" /><path
     d="m 114.62419,84.404407 h -0.70313 c -2.80957,0 -5.61914,0.621094 -5.61914,3.726563 0,1.863281 0.70313,3.421875 2.5752,3.421875 2.80956,0 3.74706,-2.800781 3.74706,-4.974609 v -2.173829 m 1e-5,9.011719 v -2.173828 c -1.17188,1.552734 -2.34082,2.484375 -4.68457,2.484375 -3.04395,0 -4.44727,-2.173828 -4.44727,-5.285156 0,-5.595703 4.44727,-5.90625 9.13184,-5.90625 v -0.621094 c 0,-2.173828 0,-4.664063 -2.80957,-4.664063 -1.64063,0 -3.04395,0.931641 -3.04395,2.794922 v 0 h -2.57519 c 0,-3.416016 2.57519,-4.664063 5.61914,-4.664063 4.21582,0 5.38476,1.869141 5.38476,5.912109 v 6.527344 c 0,1.869141 0,3.732422 0.23438,5.595703 z"
     id="path1608"
     style="fill:#929292;fill-opacity:1"
     inkscape:connector-curvature="0" /><path
     d="m 125.86247,93.726673 c -3.27832,0 -5.15039,-1.552734 -5.38477,-4.353516 0,-0.304688 0,-0.931641 0,-1.242188 h 2.80957 c 0,0.310547 0,0.621094 0,0.9375 0,1.546875 0.70313,2.794922 2.5752,2.794922 1.64062,0 2.57812,-1.248047 2.57812,-2.794922 0,-2.179688 -1.17187,-2.800781 -3.04687,-4.042969 -2.5752,-1.242188 -4.44727,-2.179688 -4.44727,-4.980469 0,-3.105469 2.10645,-4.664063 5.15039,-4.664063 3.04395,0 4.68457,1.248047 4.91895,3.738281 0.23437,0.621094 0.23437,0.925781 0.23437,1.546875 h -2.80957 c 0,-0.621094 0,-0.925781 0,-1.242188 -0.23437,-1.242188 -0.70312,-2.173828 -2.57812,-2.173828 -1.40332,0 -2.34082,0.931641 -2.34082,2.490234 0,1.863281 1.64062,2.484375 3.51269,3.416016 2.34082,1.248047 4.21582,2.490234 4.21582,5.285156 0,3.732424 -2.10937,5.285159 -5.38769,5.285159"
     id="path1610"
     style="fill:#929292;fill-opacity:1"
     inkscape:connector-curvature="0" /><path
     d="m 139.4445,93.726673 c -3.27832,0 -3.98145,-1.552734 -3.98145,-4.658203 V 77.871204 h -2.57519 v -2.173828 h 2.57519 v -3.111328 l 2.80957,-1.242188 v 4.353516 h 3.04395 v 2.173828 h -3.04395 v 10.880859 c 0,2.179688 0.46875,2.490234 1.875,2.490234 0.46875,0 0.9375,0 1.40332,0 v 2.173828 c -0.70019,1e-6 -1.40332,0.310548 -2.10644,0.310548"
     id="path1612"
     style="fill:#929292;fill-opacity:1"
     inkscape:connector-curvature="0" /><path
     d="m 152.55778,80.982532 c -0.23438,-1.863281 -0.9375,-3.732422 -3.04102,-3.732422 -2.10937,0 -3.04687,1.552734 -3.28125,3.416016 0,0.9375 0,1.558594 0,2.490234 h 6.32227 c 0,-0.93164 0,-1.552734 0,-2.173828 m -6.32227,4.042969 v 1.242188 c 0,2.800781 0.23438,5.595703 3.28125,5.595703 2.57227,0 3.04102,-1.869141 3.04102,-4.042969 h 2.80664 c -0.23437,3.732422 -1.64062,5.90625 -5.84765,5.90625 -5.62207,0 -6.09082,-3.732422 -6.09082,-8.396484 0,-4.664062 0.23437,-9.949219 6.09082,-9.949219 5.84765,0 5.84765,4.359375 5.84765,8.707031 v 0.9375 z"
     id="path1614"
     style="fill:#929292;fill-opacity:1"
     inkscape:connector-curvature="0" /><path
     d="m 165.67106,77.871204 c -2.80664,0 -3.97852,1.869141 -3.97852,4.664063 v 10.880859 h -2.8125 V 79.119251 c 0,-0.9375 0,-2.490234 0,-3.421875 h 2.57813 v 2.484375 c 1.17187,-1.863281 2.57227,-2.800781 4.68164,-2.800781 h 0.22852 v 2.800781 c -0.22852,-0.310547 -0.46289,-0.310547 -0.69727,-0.310547"
     id="path1616"
     style="fill:#929292;fill-opacity:1"
     inkscape:connector-curvature="0" /><path
     d="m 183.46598,70.722766 -3.51562,13.986328 h 7.26562 l -3.75,-13.986328 m 6.32227,22.69336 -1.86914,-6.527344 h -8.67188 l -1.86914,6.527344 h -3.04101 l 7.48828,-25.488281 h 3.75 l 7.2539,25.488281 z"
     id="path1618"
     style="fill:#929292;fill-opacity:1"
     inkscape:connector-curvature="0" /><path
     d="m 204.06755,93.416126 v -2.173828 c -1.16602,1.552734 -2.57227,2.484375 -4.44141,2.484375 -3.51563,0 -4.92188,-2.173828 -4.92188,-5.595703 V 75.697376 h 2.8125 v 11.191406 c 0,2.179688 0,4.664063 2.8125,4.664063 3.04102,0 3.50391,-2.800781 3.50391,-4.974609 v -10.88086 h 2.8125 v 13.675781 c 0,1.558594 0,2.800781 0.23438,4.042969 h -2.8125"
     id="path1620"
     style="fill:#929292;fill-opacity:1"
     inkscape:connector-curvature="0" /><path
     d="m 216.4777,77.25011 c -3.27539,0 -3.27539,4.042969 -3.27539,7.154297 0,4.037109 0.23438,7.148438 3.04688,7.148438 3.27539,0 3.50976,-3.421875 3.50976,-6.84375 0,-3.726563 -0.23437,-7.458985 -3.28125,-7.458985 m 3.51563,16.166016 v -2.173828 c -1.17188,1.863281 -2.34375,2.484375 -4.21289,2.484375 -5.1504,0 -5.61915,-4.974609 -5.61915,-9.322266 0,-4.359375 0.70313,-9.023438 5.61915,-9.023438 1.86914,0 3.04101,0.626953 3.97851,2.179688 v -9.632813 h 2.8125 V 89.99425 c 0,0.9375 0,2.490234 0,3.421875 z"
     id="path1622"
     style="fill:#929292;fill-opacity:1"
     inkscape:connector-curvature="0" /><path
     d="m 226.78434,75.697376 h 2.80664 v 17.71875 h -2.80664 v -17.71875 m 0,-7.148438 h 3.04102 v 2.794922 h -3.04102 z"
     id="path1624"
     style="fill:#929292;fill-opacity:1"
     inkscape:connector-curvature="0" /><path
     d="m 242.70426,83.783313 c 0,-2.800781 0,-6.533203 -3.27539,-6.533203 -3.50976,0 -3.27539,4.042969 -3.27539,6.533203 v 2.484375 c 0,2.484375 0,5.595703 3.27539,5.595703 3.04102,0 3.27539,-3.111328 3.27539,-5.595703 v -2.484375 m -3.27539,9.94336 c -5.61914,0 -6.08789,-3.732422 -6.08789,-9.017578 0,-4.96875 0.46875,-9.328125 6.08789,-9.328125 5.61915,0 6.0879,3.738281 6.0879,9.023438 -1e-5,5.906249 -0.93751,9.322265 -6.0879,9.322265"
     id="path1626"
     style="fill:#929292;fill-opacity:1"
     inkscape:connector-curvature="0" /><polyline
     points="298.650879,8.09668 298.650879,1.879883 296.547363,1.879883 296.547363,1.255859 301.92627,1.255859   301.92627,1.879883 299.588379,1.879883 299.588379,8.09668 298.650879,8.09668 "
     id="polyline1628"
     style="fill:#929292;fill-opacity:1"
     transform="translate(-9.5813803,1.0674926)" /><path
     d="m 293.04801,9.1641726 v -6.84082 h 1.40625 l 1.64063,4.664063 c 0,0.621094 0.23437,0.93457 0.23437,0.93457 0,0 0.23438,-0.313477 0.46875,-0.93457 l 1.40625,-4.664063 h 1.40625 v 6.84082 h -0.9375 v -5.90625 l -2.10937,5.90625 h -0.70313 l -1.875,-5.90625 v 5.90625 h -0.9375"
     id="path1630"
     style="fill:#929292;fill-opacity:1"
     inkscape:connector-curvature="0" /></svg>