<?xml version="1.0" encoding="UTF-8" standalone="no"?>
<svg
  id="video_format"
  data-name="video format"
  width="200"
  height="132"
  viewBox="0 0 200 132"
  version="1.1"
  xmlns="http://www.w3.org/2000/svg"
  xmlns:xlink="http://www.w3.org/1999/xlink">
  <metadata
     id="metadata3755">
  </metadata>
  <defs
     id="defs3759">
    <style
       id="style3757">
      .cls-1 {
        font-size: 54px;
        text-anchor: middle;
        font-family: Arial;
        font-weight: 700;
        font-style: italic;
        display:inline;
        stroke-width:2.85;
      }

      .cls-1, .cls-2, .cls-3 {
        fill: #929292;
      }

      .cls-3 {
        fill-rule: evenodd;
      }
    </style>
  </defs>
  <text
     class="cls-1"
     data-name="text"
     id="text"
     x="99"
     y="60">480</text>
  <path
     style="fill:#929292"
     d="M 25 80 C 22.23 80 20 82.23 20 85 L 20 115 C 20 117.77 22.23 120 25 120 L 175 120 C 177.77 120 180 117.77 180 115 L 180 85 C 180 82.23 177.77 80 175 80 L 25 80 z M 138.625 88.148438 C 141.45833 88.148438 143.74479 89.028646 145.48438 90.789062 C 147.23438 92.549479 148.10938 94.882813 148.10938 97.789062 C 148.10938 100.20573 147.54167 102.54427 146.40625 104.80469 C 145.27084 107.0651 143.72917 108.80468 141.78125 110.02344 C 139.83334 111.24218 137.63021 111.85156 135.17188 111.85156 C 133.03646 111.85156 131.24479 111.36718 129.79688 110.39844 C 128.34896 109.42968 127.32292 108.23177 126.71875 106.80469 C 126.11458 105.36719 125.8125 103.91927 125.8125 102.46094 C 125.8125 101.10677 126.01562 99.679688 126.42188 98.179688 C 126.95312 96.169271 127.76042 94.424479 128.84375 92.945312 C 129.9375 91.466146 131.3125 90.299479 132.96875 89.445312 C 134.625 88.580729 136.51042 88.148438 138.625 88.148438 z M 51.890625 88.539062 L 56.59375 88.539062 L 59.5 105.86719 L 68.984375 88.539062 L 73.65625 88.539062 L 61.03125 111.44531 L 56 111.44531 L 51.890625 88.539062 z M 75.546875 88.539062 L 80.25 88.539062 L 75.46875 111.44531 L 70.75 111.44531 L 75.546875 88.539062 z M 84.703125 88.539062 L 90.875 88.539062 C 92.593753 88.539062 93.692708 88.565101 94.171875 88.617188 C 95.119788 88.710937 95.963538 88.903646 96.703125 89.195312 C 97.453125 89.486979 98.130208 89.898437 98.734375 90.429688 C 99.348955 90.950521 99.875003 91.580729 100.3125 92.320312 C 100.76042 93.059896 101.10417 93.914062 101.34375 94.882812 C 101.58334 95.841146 101.70312 96.893229 101.70312 98.039062 C 101.70313 100.50781 101.22917 102.70052 100.28125 104.61719 C 99.343753 106.52344 98.161455 108.03906 96.734375 109.16406 C 95.640622 110.03906 94.229167 110.6849 92.5 111.10156 C 91.520833 111.33073 90.015622 111.44531 87.984375 111.44531 L 79.90625 111.44531 L 84.703125 88.539062 z M 107.73438 88.539062 L 124.71875 88.539062 L 123.92188 92.367188 L 111.65625 92.367188 L 110.5625 97.570312 L 122.42188 97.570312 L 121.625 101.39844 L 109.76562 101.39844 L 108.32812 107.61719 L 121.65625 107.61719 L 120.84375 111.44531 L 102.95312 111.44531 L 107.73438 88.539062 z M 138.25 92.085938 C 135.94792 92.085938 134.07292 93.158854 132.625 95.304688 C 131.1875 97.450521 130.46875 99.804687 130.46875 102.36719 C 130.46875 103.9401 130.94792 105.25781 131.90625 106.32031 C 132.86458 107.38281 134.125 107.91406 135.6875 107.91406 C 136.95833 107.91406 138.17708 107.4974 139.34375 106.66406 C 140.52084 105.82032 141.48959 104.54948 142.25 102.85156 C 143.02083 101.14323 143.40625 99.481768 143.40625 97.867188 C 143.40625 96.065104 142.92187 94.653646 141.95312 93.632812 C 140.98437 92.601562 139.75 92.085938 138.25 92.085938 z M 88.609375 92.320312 L 85.390625 107.75781 L 87.78125 107.75781 C 89.510417 107.75781 90.760417 107.65365 91.53125 107.44531 C 92.312503 107.22657 93.026042 106.82552 93.671875 106.24219 C 94.598955 105.39843 95.380205 104.27343 96.015625 102.86719 C 96.651038 101.46093 96.96875 99.804685 96.96875 97.898438 C 96.96875 96.273438 96.703122 95.054688 96.171875 94.242188 C 95.651042 93.419271 95.005208 92.872396 94.234375 92.601562 C 93.692708 92.414062 92.72917 92.320312 91.34375 92.320312 L 88.609375 92.320312 z "
     id="rect3764" />
</svg>
