<?xml version="1.0" encoding="UTF-8" standalone="no"?>
<!-- Creator: CorelDRAW -->

<svg
   xmlns:dc="http://purl.org/dc/elements/1.1/"
   xmlns:cc="http://creativecommons.org/ns#"
   xmlns:rdf="http://www.w3.org/1999/02/22-rdf-syntax-ns#"
   xmlns:svg="http://www.w3.org/2000/svg"
   xmlns="http://www.w3.org/2000/svg"
   xmlns:sodipodi="http://sodipodi.sourceforge.net/DTD/sodipodi-0.dtd"
   xmlns:inkscape="http://www.inkscape.org/namespaces/inkscape"
   xml:space="preserve"
   width="392.01749"
   height="256.50751"
   style="fill-rule:evenodd;image-rendering:optimizeQuality;shape-rendering:geometricPrecision;text-rendering:geometricPrecision"
   viewBox="0 0 392.99999 256.50751"
   version="1.1"
   id="svg853"
   sodipodi:docname="vhs.svg"
   inkscape:version="0.92.2 5c3e80d, 2017-08-06"><metadata
     id="metadata857"><rdf:RDF><cc:Work
         rdf:about=""><dc:format>image/svg+xml</dc:format><dc:type
           rdf:resource="http://purl.org/dc/dcmitype/StillImage" /><dc:title></dc:title></cc:Work></rdf:RDF></metadata><sodipodi:namedview
     pagecolor="#ffffff"
     bordercolor="#666666"
     borderopacity="1"
     objecttolerance="10"
     gridtolerance="10"
     guidetolerance="10"
     inkscape:pageopacity="0"
     inkscape:pageshadow="2"
     inkscape:window-width="2560"
     inkscape:window-height="1389"
     id="namedview855"
     showgrid="false"
     fit-margin-top="30"
     fit-margin-left="0"
     fit-margin-right="0"
     fit-margin-bottom="30"
     inkscape:zoom="4.8847118"
     inkscape:cx="151.91761"
     inkscape:cy="128.24437"
     inkscape:window-x="0"
     inkscape:window-y="25"
     inkscape:window-maximized="1"
     inkscape:current-layer="svg853" /><defs
     id="defs836" /><g
     id="Layer 1"
     transform="translate(-4.5,26.328939)"><rect
       x="145"
       y="24"
       width="33"
       height="154"
       id="rect838"
       style="fill:#929292;fill-opacity:1" /><rect
       x="216"
       y="24"
       width="33"
       height="154"
       id="rect840"
       style="fill:#929292;fill-opacity:1" /><path
       d="m 27,24 h 37 l 39,155 H 66 Z"
       id="path842"
       style="fill:#929292;fill-opacity:1"
       inkscape:connector-curvature="0" /><path
       d="m 131,24 h -20 c -1,1 -1,4 0,5 2,6 1,13 0,19 L 81,179 h 15 z"
       id="path844"
       style="fill:#929292;fill-opacity:1"
       inkscape:connector-curvature="0" /><path
       d="m 220,123 h -73 l -9,14 h 58 c 9,0 21,-7 24,-14 z"
       id="path846"
       style="fill:#929292;fill-opacity:1"
       inkscape:connector-curvature="0" /><path
       d="M 327,89 C 276,79 293,37 322,37 h 47 l 6,-13 h -61 c -18,0 -57,18 -52,53 2,23 18,32 47,40 50,12 34,48 12,48 h -54 l 6,14 h 51 c 27,0 51,-19 51,-46 -1,-28 -16,-38 -48,-44 z"
       id="path848"
       style="fill:#929292;fill-opacity:1"
       inkscape:connector-curvature="0" /><rect
       x="8"
       y="7"
       width="386"
       height="190"
       id="rect850"
       style="fill-opacity:0;stroke:#929292;stroke-width:7" /></g></svg>