<?xml version="1.0" encoding="UTF-8" standalone="no"?>
<!-- Creator: CorelDRAW X6 -->

<svg
   xmlns:dc="http://purl.org/dc/elements/1.1/"
   xmlns:cc="http://creativecommons.org/ns#"
   xmlns:rdf="http://www.w3.org/1999/02/22-rdf-syntax-ns#"
   xmlns:svg="http://www.w3.org/2000/svg"
   xmlns="http://www.w3.org/2000/svg"
   xmlns:sodipodi="http://sodipodi.sourceforge.net/DTD/sodipodi-0.dtd"
   xmlns:inkscape="http://www.inkscape.org/namespaces/inkscape"
   xml:space="preserve"
   width="4.6in"
   height="4.55in"
   version="1.1"
   style="shape-rendering:geometricPrecision; text-rendering:geometricPrecision; image-rendering:optimizeQuality; fill-rule:evenodd; clip-rule:evenodd"
   viewBox="0 0 4600 4550"
   sodipodi:version="0.32"
   inkscape:version="0.92.2 5c3e80d, 2017-08-06"
   sodipodi:docname="quicktime.svg"
   id="svg875"><metadata
     id="metadata879"><rdf:RDF><cc:Work
         rdf:about=""><dc:format>image/svg+xml</dc:format><dc:type
           rdf:resource="http://purl.org/dc/dcmitype/StillImage" /><dc:title></dc:title></cc:Work></rdf:RDF></metadata><sodipodi:namedview
     pagecolor="#ffffff"
     bordercolor="#666666"
     borderopacity="1"
     objecttolerance="10"
     gridtolerance="10"
     guidetolerance="10"
     inkscape:pageopacity="0"
     inkscape:pageshadow="2"
     inkscape:window-width="2560"
     inkscape:window-height="1389"
     id="namedview877"
     showgrid="false"
     inkscape:zoom="2.7243589"
     inkscape:cx="220.8"
     inkscape:cy="218.40001"
     inkscape:window-x="0"
     inkscape:window-y="25"
     inkscape:window-maximized="1"
     inkscape:current-layer="svg875" /><defs
     id="defs869"><style
       type="text/css"
       id="style867"><![CDATA[
    .fil0 {fill:black;fill-rule:nonzero}
   ]]></style></defs><g
     id="Layer_x0020_1"
     style="fill:#{color};fill-opacity:1"><metadata
       id="CorelCorpID_0Corel-Layer" /><sodipodi:namedview
       id="base"
       pagecolor="#ffffff"
       bordercolor="#666666"
       borderopacity="1.0"
       inkscape:pageopacity="0.0"
       inkscape:pageshadow="2"
       inkscape:zoom="0.35"
       inkscape:cx="350"
       inkscape:cy="520"
       inkscape:document-units="px"
       inkscape:current-layer="layer1"
       inkscape:window-width="904"
       inkscape:window-height="574"
       inkscape:window-x="92"
       inkscape:window-y="92" /><path
       id="path10"
       class="fil0"
       d="M4506 3738l-308 -309c-6,-6 -8,-13 -8,-21 0,-5 2,-11 4,-15 190,-327 299,-707 299,-1113 0,-1227 -995,-2222 -2222,-2222 -1227,0 -2222,995 -2222,2222 0,1227 995,2222 2222,2222 440,0 850,-128 1194,-348 5,-3 11,-5 17,-5 9,0 16,3 22,8l309 309c24,25 72,45 107,45l569 0c34,0 62,-28 62,-63l0 -602c0,-34 -20,-82 -44,-107m-898 -1478c0,739 -599,1337 -1337,1337 -738,0 -1338,-599 -1338,-1337 0,-739 599,-1338 1338,-1338 306,0 587,103 813,276l396 -396 256 257 -397 397c169,224 268,502 268,804m-524 -1062l-739 739c-24,-6 -49,-8 -74,-8 -182,0 -329,147 -329,329 0,182 148,330 329,330 182,0 329,-148 329,-330 0,-19 -2,-38 -5,-57l745 -745c-73,-97 -159,-184 -255,-258m-814 1195c-75,0 -135,-61 -135,-136 0,-75 60,-135 135,-135 75,0 135,61 135,135 0,75 -61,136 -135,136z"
       style="fill:#{color};fill-opacity:1" /></g></svg>
