<?xml version="1.0" encoding="UTF-8" standalone="no"?>
<!-- Created with Inkscape (http://www.inkscape.org/) -->

<svg
   xmlns:dc="http://purl.org/dc/elements/1.1/"
   xmlns:cc="http://creativecommons.org/ns#"
   xmlns:rdf="http://www.w3.org/1999/02/22-rdf-syntax-ns#"
   xmlns:svg="http://www.w3.org/2000/svg"
   xmlns="http://www.w3.org/2000/svg"
   xmlns:sodipodi="http://sodipodi.sourceforge.net/DTD/sodipodi-0.dtd"
   xmlns:inkscape="http://www.inkscape.org/namespaces/inkscape"
   width="316.77338"
   height="143.92268"
   id="svg4061"
   version="1.1"
   inkscape:version="0.92.2 5c3e80d, 2017-08-06"
   sodipodi:docname="vp8.svg">
  <defs
     id="defs4063">
    <linearGradient
       id="linearGradient3600-3">
      <stop
         style="stop-color:#8ae234;stop-opacity:1;"
         offset="0"
         id="stop3602-6" />
      <stop
         style="stop-color:#4e9a06;stop-opacity:1;"
         offset="1"
         id="stop3604-3" />
    </linearGradient>
  </defs>
  <sodipodi:namedview
     id="base"
     pagecolor="#ffffff"
     bordercolor="#666666"
     borderopacity="1.0"
     inkscape:pageopacity="0.0"
     inkscape:pageshadow="2"
     inkscape:zoom="1"
     inkscape:cx="147.6724"
     inkscape:cy="100.53275"
     inkscape:document-units="px"
     inkscape:current-layer="layer1"
     showgrid="false"
     inkscape:window-width="1790"
     inkscape:window-height="983"
     inkscape:window-x="180"
     inkscape:window-y="299"
     inkscape:window-maximized="0"
     fit-margin-top="5"
     fit-margin-right="5"
     fit-margin-bottom="5"
     fit-margin-left="5" />
  <metadata
     id="metadata4066">
    <rdf:RDF>
      <cc:Work
         rdf:about="">
        <dc:format>image/svg+xml</dc:format>
        <dc:type
           rdf:resource="http://purl.org/dc/dcmitype/StillImage" />
        <dc:title></dc:title>
      </cc:Work>
    </rdf:RDF>
  </metadata>
  <g
     inkscape:label="Layer 1"
     inkscape:groupmode="layer"
     id="layer1"
     transform="translate(-227.3276,-488.97225)">
    <g
       style="font-size:181.19909668px;font-style:normal;font-variant:normal;font-weight:bold;font-stretch:normal;text-indent:0;text-align:start;text-decoration:none;line-height:125%;letter-spacing:0.49462566;word-spacing:0px;text-transform:none;direction:ltr;block-progression:tb;writing-mode:lr-tb;text-anchor:start;baseline-shift:baseline;color:#000000;fill:#929292;fill-opacity:1;fill-rule:nonzero;stroke:#929292;stroke-width:2.24499989;stroke-linecap:butt;stroke-linejoin:miter;stroke-miterlimit:4;stroke-dashoffset:0;stroke-opacity:1;marker:none;visibility:visible;display:inline;overflow:visible;enable-background:accumulate;font-family:PT Sans;-inkscape-font-specification:PT Sans Bold"
       id="text3019">
      <path
         d="m 287.62862,571.98673 3.26159,21.5627 0.90599,0 3.62399,-21.7439 24.28067,-74.29163 26.09267,0 -47.11176,127.74537 -17.75751,0 -47.47417,-127.74537 28.81066,0 25.36787,74.47283 z"
         style="marker:none;stroke:#929292;stroke-opacity:1;fill:#929292;fill-opacity:1"
         id="path3098" />
      <path
         d="m 355.45004,498.7823 c 5.07356,-0.96627 10.63033,-1.69107 16.67032,-2.17439 6.16073,-0.60387 12.2611,-0.90587 18.30111,-0.906 6.28151,1.3e-4 12.56307,0.54373 18.8447,1.63079 6.4023,0.96653 12.14026,3.02011 17.21392,6.16077 5.07348,3.02011 9.18066,7.30848 12.32153,12.86514 3.26149,5.43608 4.89228,12.56323 4.89238,21.38149 -1e-4,7.97284 -1.38929,14.7376 -4.16758,20.2943 -2.77848,5.43604 -6.46286,9.90561 -11.05314,13.40874 -4.59046,3.50323 -9.84523,6.04001 -15.76433,7.61036 -5.79843,1.57043 -11.83839,2.35563 -18.1199,2.35559 -0.60405,4e-5 -1.57045,4e-5 -2.89919,0 -1.32884,4e-5 -2.71803,4e-5 -4.16758,0 -1.44963,-0.12076 -2.89923,-0.24156 -4.34878,-0.3624 -1.32883,-0.12076 -2.29522,-0.24156 -2.89918,-0.3624 l 0,43.66898 -24.82428,0 0,-125.57097 z m 36.96462,18.30111 c -2.41604,1e-4 -4.71122,0.1209 -6.88557,0.36239 -2.17443,0.12091 -3.92602,0.30211 -5.25477,0.5436 l 0,41.1322 c 0.48316,0.12086 1.20795,0.24166 2.17439,0.36239 0.96635,0.12087 1.99315,0.24167 3.08038,0.3624 1.08715,7e-5 2.11395,7e-5 3.08038,0 1.08715,7e-5 1.87235,7e-5 2.35559,0 3.26154,7e-5 6.46272,-0.30193 9.60356,-0.90599 3.26152,-0.60393 6.1607,-1.69113 8.69755,-3.26159 2.53672,-1.69112 4.52991,-3.9863 5.97957,-6.88556 1.57032,-2.89911 2.35552,-6.70429 2.35559,-11.41554 -7e-5,-3.98629 -0.72487,-7.24787 -2.17439,-9.78476 -1.44966,-2.65748 -3.38245,-4.77147 -5.79837,-6.34196 -2.29525,-1.57029 -4.95284,-2.65749 -7.97276,-3.26159 -3.02004,-0.60389 -6.10042,-0.90589 -9.24115,-0.90599 z"
         style="marker:none;stroke:#929292;stroke-opacity:1;fill:#929292;fill-opacity:1"
         id="path3100" />
    </g>
    <g
       style="font-size:181.19909668px;font-style:normal;font-variant:normal;font-weight:bold;font-stretch:normal;text-indent:0;text-align:start;text-decoration:none;line-height:125%;letter-spacing:0.49462566;word-spacing:0px;text-transform:none;direction:ltr;block-progression:tb;writing-mode:lr-tb;text-anchor:start;baseline-shift:baseline;color:#000000;fill:#929292;fill-opacity:1;fill-rule:nonzero;stroke:#929292;stroke-width:2.0097425;stroke-linecap:butt;stroke-linejoin:round;stroke-miterlimit:4;stroke-dashoffset:0;stroke-opacity:1;marker:none;visibility:visible;display:inline;overflow:visible;enable-background:accumulate;font-family:PT Sans;-inkscape-font-specification:PT Sans Bold"
       id="text3023">
      <path
         d="m 455.46931,593.36823 c -1e-5,-4.22795 0.54359,-7.97273 1.63079,-11.23435 1.08719,-3.38234 2.59718,-6.40232 4.52998,-9.05995 2.05357,-2.77833 4.40916,-5.25472 7.06677,-7.42917 2.77836,-2.17432 5.73794,-4.16751 8.87875,-5.97957 -5.91919,-3.74471 -10.56997,-8.03308 -13.95233,-12.86513 -3.3824,-4.95269 -5.07359,-11.05306 -5.07357,-18.30111 -2e-5,-4.71108 0.84558,-9.12025 2.53679,-13.22753 1.81197,-4.10707 4.34875,-7.67065 7.61036,-10.69075 3.38235,-3.01986 7.42913,-5.37545 12.14034,-7.06677 4.71113,-1.69106 10.0263,-2.53665 15.94552,-2.53678 5.43591,1.3e-4 10.38868,0.72492 14.85832,2.17439 4.46951,1.44971 8.27469,3.5033 11.41555,6.16076 3.2615,2.65771 5.73788,5.91929 7.42916,9.78476 1.8119,3.74488 2.7179,7.91246 2.71799,12.50273 -9e-5,7.12726 -1.63088,13.16722 -4.89238,18.11991 -3.14087,4.95285 -7.79164,9.48283 -13.95233,13.58994 7.24789,4.22804 12.68385,8.87881 16.30792,13.95233 3.74469,5.07362 5.61708,11.59678 5.61717,19.5695 -9e-5,5.436 -1.02689,10.38877 -3.08038,14.85832 -1.93288,4.3488 -4.71127,8.09357 -8.33516,11.23435 -3.62406,3.14079 -7.97284,5.61717 -13.04634,7.42916 -5.07363,1.69119 -10.6304,2.53679 -16.67031,2.53679 -6.04002,0 -11.53639,-0.8456 -16.48912,-2.53679 -4.83201,-1.57039 -8.99958,-3.80518 -12.50274,-6.70437 -3.3824,-2.89917 -6.03999,-6.40235 -7.97276,-10.50954 -1.812,-4.10716 -2.718,-8.69753 -2.71799,-13.77113 m 58.34611,-2.35559 c -7e-5,-2.77835 -0.66446,-5.31514 -1.99319,-7.61036 -1.32886,-2.29515 -3.08045,-4.34874 -5.25477,-6.16077 -2.05365,-1.93274 -4.40924,-3.68433 -7.06677,-5.25478 -2.53684,-1.57034 -5.13402,-3.08033 -7.79156,-4.52997 -5.67761,3.26163 -9.60359,6.82521 -11.77794,10.69074 -2.05362,3.74483 -3.08042,7.4896 -3.08038,11.23435 -4e-5,4.832 1.63075,8.99958 4.89237,12.50273 3.38234,3.38241 8.03312,5.0736 13.95233,5.07358 5.43592,2e-5 9.78469,-1.32878 13.04634,-3.98638 3.38231,-2.65756 5.0735,-6.64394 5.07357,-11.95914 m -32.79703,-62.15129 c -4e-5,2.89928 0.54356,5.43606 1.63079,7.61036 1.08715,2.17447 2.53674,4.10726 4.34878,5.79837 1.93274,1.57047 4.04673,3.08046 6.34196,4.52998 2.41594,1.32887 4.89233,2.59726 7.42917,3.80518 7.2479,-6.16069 10.87188,-12.92545 10.87194,-20.2943 -6e-5,-5.07348 -1.51006,-8.87865 -4.52997,-11.41554 -2.89925,-2.65748 -6.46283,-3.98627 -10.69075,-3.98638 -5.31522,1.1e-4 -9.2412,1.3893 -11.77794,4.16758 -2.41603,2.77848 -3.62402,6.04007 -3.62398,9.78475"
         style="marker:none;fill:#929292;fill-opacity:1;stroke:#929292;stroke-opacity:1"
         id="path3103" />
    </g>
  </g>
</svg>
