<?xml version="1.0" encoding="UTF-8" standalone="no"?>
<!-- Created with Inkscape (http://www.inkscape.org/) -->

<svg
   xmlns:dc="http://purl.org/dc/elements/1.1/"
   xmlns:cc="http://creativecommons.org/ns#"
   xmlns:rdf="http://www.w3.org/1999/02/22-rdf-syntax-ns#"
   xmlns:svg="http://www.w3.org/2000/svg"
   xmlns="http://www.w3.org/2000/svg"
   xmlns:sodipodi="http://sodipodi.sourceforge.net/DTD/sodipodi-0.dtd"
   xmlns:inkscape="http://www.inkscape.org/namespaces/inkscape"
   width="316.77338"
   height="143.92268"
   id="svg4061"
   version="1.1"
   inkscape:version="0.92.2 5c3e80d, 2017-08-06"
   sodipodi:docname="vp9.svg">
  <defs
     id="defs4063">
    <linearGradient
       id="linearGradient3600-3">
      <stop
         style="stop-color:#8ae234;stop-opacity:1;"
         offset="0"
         id="stop3602-6" />
      <stop
         style="stop-color:#4e9a06;stop-opacity:1;"
         offset="1"
         id="stop3604-3" />
    </linearGradient>
  </defs>
  <sodipodi:namedview
     id="base"
     pagecolor="#ffffff"
     bordercolor="#666666"
     borderopacity="1.0"
     inkscape:pageopacity="0.0"
     inkscape:pageshadow="2"
     inkscape:zoom="1"
     inkscape:cx="-5.3276"
     inkscape:cy="100.53275"
     inkscape:document-units="px"
     inkscape:current-layer="layer1"
     showgrid="false"
     inkscape:window-width="2560"
     inkscape:window-height="1389"
     inkscape:window-x="0"
     inkscape:window-y="25"
     inkscape:window-maximized="1"
     fit-margin-top="5"
     fit-margin-right="5"
     fit-margin-bottom="5"
     fit-margin-left="5" />
  <metadata
     id="metadata4066">
    <rdf:RDF>
      <cc:Work
         rdf:about="">
        <dc:format>image/svg+xml</dc:format>
        <dc:type
           rdf:resource="http://purl.org/dc/dcmitype/StillImage" />
        <dc:title></dc:title>
      </cc:Work>
    </rdf:RDF>
  </metadata>
  <g
     inkscape:label="Layer 1"
     inkscape:groupmode="layer"
     id="layer1"
     transform="translate(-227.3276,-488.97225)">
    <g
       style="font-size:181.19909668px;font-style:normal;font-variant:normal;font-weight:bold;font-stretch:normal;text-indent:0;text-align:start;text-decoration:none;line-height:125%;letter-spacing:0.49462566;word-spacing:0px;text-transform:none;direction:ltr;block-progression:tb;writing-mode:lr-tb;text-anchor:start;baseline-shift:baseline;color:#000000;fill:#{color};fill-opacity:1;fill-rule:nonzero;stroke:#{color};stroke-width:2.24499989;stroke-linecap:butt;stroke-linejoin:miter;stroke-miterlimit:4;stroke-dashoffset:0;stroke-opacity:1;marker:none;visibility:visible;display:inline;overflow:visible;enable-background:accumulate;font-family:PT Sans;-inkscape-font-specification:PT Sans Bold"
       id="text3019">
      <path
         d="m 287.62862,571.98673 3.26159,21.5627 0.90599,0 3.62399,-21.7439 24.28067,-74.29163 26.09267,0 -47.11176,127.74537 -17.75751,0 -47.47417,-127.74537 28.81066,0 25.36787,74.47283 z"
         style="marker:none;fill:#{color};fill-opacity:1;stroke:#{color};stroke-opacity:1"
         id="path3018" />
      <path
         d="m 355.45004,498.7823 c 5.07356,-0.96627 10.63033,-1.69107 16.67032,-2.17439 6.16073,-0.60387 12.2611,-0.90587 18.30111,-0.906 6.28151,1.3e-4 12.56307,0.54373 18.8447,1.63079 6.4023,0.96653 12.14026,3.02011 17.21392,6.16077 5.07348,3.02011 9.18066,7.30848 12.32153,12.86514 3.26149,5.43608 4.89228,12.56323 4.89238,21.38149 -1e-4,7.97284 -1.38929,14.7376 -4.16758,20.2943 -2.77848,5.43604 -6.46286,9.90561 -11.05314,13.40874 -4.59046,3.50323 -9.84523,6.04001 -15.76433,7.61036 -5.79843,1.57043 -11.83839,2.35563 -18.1199,2.35559 -0.60405,4e-5 -1.57045,4e-5 -2.89919,0 -1.32884,4e-5 -2.71803,4e-5 -4.16758,0 -1.44963,-0.12076 -2.89923,-0.24156 -4.34878,-0.3624 -1.32883,-0.12076 -2.29522,-0.24156 -2.89918,-0.3624 l 0,43.66898 -24.82428,0 0,-125.57097 z m 36.96462,18.30111 c -2.41604,1e-4 -4.71122,0.1209 -6.88557,0.36239 -2.17443,0.12091 -3.92602,0.30211 -5.25477,0.5436 l 0,41.1322 c 0.48316,0.12086 1.20795,0.24166 2.17439,0.36239 0.96635,0.12087 1.99315,0.24167 3.08038,0.3624 1.08715,7e-5 2.11395,7e-5 3.08038,0 1.08715,7e-5 1.87235,7e-5 2.35559,0 3.26154,7e-5 6.46272,-0.30193 9.60356,-0.90599 3.26152,-0.60393 6.1607,-1.69113 8.69755,-3.26159 2.53672,-1.69112 4.52991,-3.9863 5.97957,-6.88556 1.57032,-2.89911 2.35552,-6.70429 2.35559,-11.41554 -7e-5,-3.98629 -0.72487,-7.24787 -2.17439,-9.78476 -1.44966,-2.65748 -3.38245,-4.77147 -5.79837,-6.34196 -2.29525,-1.57029 -4.95284,-2.65749 -7.97276,-3.26159 -3.02004,-0.60389 -6.10042,-0.90589 -9.24115,-0.90599"
         style="marker:none;fill:#{color};fill-opacity:1;stroke:#{color};stroke-opacity:1"
         id="path3020" />
    </g>
    <g
       style="font-size:181.19909668px;font-style:normal;font-variant:normal;font-weight:bold;font-stretch:normal;text-indent:0;text-align:start;text-decoration:none;line-height:125%;letter-spacing:0.49462566;word-spacing:0px;text-transform:none;direction:ltr;block-progression:tb;writing-mode:lr-tb;text-anchor:start;baseline-shift:baseline;color:#000000;fill:#{color};fill-opacity:1;fill-rule:nonzero;stroke:#{color};stroke-width:2.0097425;stroke-linecap:butt;stroke-linejoin:round;stroke-miterlimit:4;stroke-dashoffset:0;stroke-opacity:1;marker:none;visibility:visible;display:inline;overflow:visible;enable-background:accumulate;font-family:PT Sans;-inkscape-font-specification:PT Sans Bold"
       id="text3023">
      <path
         d="m 452.57013,537.19651 c -1e-5,-6.16068 0.90598,-11.83825 2.71798,-17.03272 1.93278,-5.19426 4.65077,-9.60344 8.15396,-13.22753 3.62396,-3.74466 7.97274,-6.64385 13.04634,-8.69756 5.19434,-2.17426 11.1135,-3.26145 17.75751,-3.26158 13.65027,1.3e-4 24.341,4.1073 32.07224,12.32154 7.85187,8.09366 11.77785,19.93199 11.77794,35.51502 -9e-5,14.0128 -1.81208,26.15312 -5.43597,36.42102 -3.50327,10.14718 -8.27484,18.66353 -14.31473,25.54907 -5.91924,6.76478 -12.8048,11.95915 -20.6567,15.58312 -7.852,3.62398 -16.12675,5.79837 -24.82427,6.52317 l -5.07358,-18.48231 c 6.64394,-0.84558 12.5631,-2.47637 17.75751,-4.89237 5.19433,-2.41597 9.6639,-5.37555 13.40874,-8.87876 3.74472,-3.62395 6.7647,-7.67072 9.05995,-12.14034 2.41592,-4.59033 4.10711,-9.4827 5.07358,-14.67713 -2.89926,3.14084 -6.04004,5.31523 -9.42236,6.52317 -3.26164,1.20804 -7.67081,1.81204 -13.22753,1.81199 -4.59042,5e-5 -9.18079,-0.78515 -13.77113,-2.35559 -4.46961,-1.57034 -8.51638,-3.92592 -12.14034,-7.06676 -3.5032,-3.26152 -6.40238,-7.3083 -8.69756,-12.14034 -2.1744,-4.9527 -3.26159,-10.75107 -3.26158,-17.39511 m 22.83108,-1.2684 c -3e-5,6.88565 1.93276,12.08002 5.79837,15.58312 3.86554,3.50326 8.69752,5.25485 14.49593,5.25478 4.95272,7e-5 8.9995,-0.78513 12.14034,-2.35559 3.14072,-1.57032 5.55671,-3.50311 7.24797,-5.79837 0.36232,-2.53671 0.54352,-4.9527 0.54359,-7.24796 -7e-5,-3.3823 -0.42287,-6.70428 -1.26839,-9.96596 -0.84567,-3.26148 -2.17446,-6.16067 -3.98638,-8.69755 -1.69126,-2.53668 -3.92604,-4.52987 -6.70437,-5.97957 -2.65764,-1.57028 -5.85882,-2.35548 -9.60355,-2.35559 -5.91921,1.1e-4 -10.50959,1.9329 -13.77113,5.79837 -3.26162,3.74488 -4.89241,8.99965 -4.89238,15.76432"
         style="marker:none;fill:#{color};fill-opacity:1;stroke:#{color};stroke-opacity:1"
         id="path3025" />
    </g>
  </g>
</svg>
